<svg width="239" height="35" fill="none" xmlns="http://www.w3.org/2000/svg"><g clip-path="url(#a)" fill="#CE43FF"><rect x="118" y="32" width="1" height="3" rx=".5"/><rect x="114" y="29" width="1" height="6" rx=".5"/><rect x="110" y="25" width="1" height="10" rx=".5"/><rect x="106" y="19" width="1" height="16" rx=".5"/><rect x="102" y="24" width="1" height="11" rx=".5"/><rect x="98" y="30" width="1" height="5" rx=".5"/><rect x="94" y="26" width="1" height="9" rx=".5"/><rect x="90" y="24" width="1" height="11" rx=".5"/><rect x="86" y="19" width="1" height="16" rx=".5"/><rect x="82" y="13" width="1" height="22" rx=".5"/><rect x="78" y="20" width="1" height="15" rx=".5"/><rect x="74" y="15" width="1" height="20" rx=".5"/><rect x="70" width="1" height="35" rx=".5"/><rect x="66" y="4" width="1" height="31" rx=".5"/><rect x="62" y="15" width="1" height="20" rx=".5"/><rect x="58" y="15" width="1" height="20" rx=".5"/><rect x="54" y="17" width="1" height="18" rx=".5"/><rect x="50" y="11" width="1" height="24" rx=".5"/><rect x="46" y="23" width="1" height="12" rx=".5"/><rect x="42" y="32" width="1" height="3" rx=".5"/><rect x="38" y="31" width="1" height="4" rx=".5"/><rect x="34" y="28" width="1" height="7" rx=".5"/><rect x="30" y="21" width="1" height="14" rx=".5"/><rect x="26" y="24" width="1" height="11" rx=".5"/><rect x="22" y="21" width="1" height="14" rx=".5"/><rect x="18" y="16" width="1" height="19" rx=".5"/><rect x="14" y="7" width="1" height="28" rx=".5"/><rect x="10" y="20" width="1" height="15" rx=".5"/><rect x="6" y="28" width="1" height="7" rx=".5"/><rect x="2" y="31" width="1" height="4" rx=".5"/><rect y="26" width="1" height="9" rx=".5"/><rect x="4" y="30" width="1" height="5" rx=".5"/><rect x="8" y="29" width="1" height="6" rx=".5"/><rect x="12" y="29" width="1" height="6" rx=".5"/><rect x="16" y="26" width="1" height="9" rx=".5"/><rect x="20" y="25" width="1" height="10" rx=".5"/><rect x="24" y="30" width="1" height="5" rx=".5"/><rect x="28" y="28" width="1" height="7" rx=".5"/><rect x="32" y="28" width="1" height="7" rx=".5"/><rect x="36" y="21" width="1" height="14" rx=".5"/><rect x="40" y="27" width="1" height="8" rx=".5"/><rect x="44" y="20" width="1" height="15" rx=".5"/><rect x="48" y="16" width="1" height="19" rx=".5"/><rect x="52" y="16" width="1" height="19" rx=".5"/><rect x="56" y="22" width="1" height="13" rx=".5"/><rect x="60" y="8" width="1" height="27" rx=".5"/><rect x="64" y="7" width="1" height="28" rx=".5"/><rect x="68" y="3" width="1" height="32" rx=".5"/><rect x="72" y="6" width="1" height="29" rx=".5"/><rect x="76" y="25" width="1" height="10" rx=".5"/><rect x="80" y="8" width="1" height="27" rx=".5"/><rect x="84" y="7" width="1" height="28" rx=".5"/><rect x="88" y="15" width="1" height="20" rx=".5"/><rect x="92" y="14" width="1" height="21" rx=".5"/><rect x="96" y="26" width="1" height="9" rx=".5"/><rect x="100" y="29" width="1" height="6" rx=".5"/><rect x="104" y="32" width="1" height="3" rx=".5"/><rect x="108" y="31" width="1" height="4" rx=".5"/><rect x="112" y="30" width="1" height="5" rx=".5"/><rect x="116" y="30" width="1" height="5" rx=".5"/><rect x="120" y="26" width="1" height="9" rx=".5"/><rect x="124" y="22" width="1" height="13" rx=".5"/><rect x="128" y="30" width="1" height="5" rx=".5"/><rect x="132" y="32" width="1" height="3" rx=".5"/><rect x="136" y="28" width="1" height="7" rx=".5"/><rect x="140" y="26" width="1" height="9" rx=".5"/><rect x="144" y="28" width="1" height="7" rx=".5"/><rect x="148" y="32" width="1" height="3" rx=".5"/><rect x="152" y="30" width="1" height="5" rx=".5"/><rect x="156" y="29" width="1" height="6" rx=".5"/><rect x="160" y="25" width="1" height="10" rx=".5"/><rect x="164" y="20" width="1" height="15" rx=".5"/><rect x="168" y="26" width="1" height="9" rx=".5"/><rect x="172" y="30" width="1" height="5" rx=".5"/><rect x="176" y="29" width="1" height="6" rx=".5"/><rect x="180" y="28" width="1" height="7" rx=".5"/><rect x="184" y="32" width="1" height="3" rx=".5"/><rect x="188" y="29" width="1" height="6" rx=".5"/><rect x="192" y="32" width="1" height="3" rx=".5"/><rect x="196" y="29" width="1" height="6" rx=".5"/><rect x="200" y="24" width="1" height="11" rx=".5"/><rect x="204" y="17" width="1" height="18" rx=".5"/><rect x="208" y="21" width="1" height="14" rx=".5"/><rect x="212" y="26" width="1" height="9" rx=".5"/><rect x="216" y="18" width="1" height="17" rx=".5"/><rect x="220" y="20" width="1" height="15" rx=".5"/><rect x="224" y="26" width="1" height="9" rx=".5"/><rect x="228" y="27" width="1" height="8" rx=".5"/><rect x="232" y="27" width="1" height="8" rx=".5"/><rect x="236" y="28" width="1" height="7" rx=".5"/><rect x="238" y="31" width="1" height="4" rx=".5"/><rect x="234" y="24" width="1" height="11" rx=".5"/><rect x="230" y="30" width="1" height="5" rx=".5"/><rect x="226" y="32" width="1" height="3" rx=".5"/><rect x="222" y="22" width="1" height="13" rx=".5"/><rect x="218" y="14" width="1" height="21" rx=".5"/><rect x="214" y="26" width="1" height="9" rx=".5"/><rect x="210" y="22" width="1" height="13" rx=".5"/><rect x="206" y="16" width="1" height="19" rx=".5"/><rect x="202" y="22" width="1" height="13" rx=".5"/><rect x="198" y="28" width="1" height="7" rx=".5"/><rect x="194" y="27" width="1" height="8" rx=".5"/><rect x="190" y="30" width="1" height="5" rx=".5"/><rect x="186" y="32" width="1" height="3" rx=".5"/><rect x="182" y="31" width="1" height="4" rx=".5"/><rect x="178" y="28" width="1" height="7" rx=".5"/><rect x="174" y="27" width="1" height="8" rx=".5"/><rect x="170" y="30" width="1" height="5" rx=".5"/><rect x="166" y="32" width="1" height="3" rx=".5"/><rect x="162" y="26" width="1" height="9" rx=".5"/><rect x="158" y="22" width="1" height="13" rx=".5"/><rect x="154" y="27" width="1" height="8" rx=".5"/><rect x="150" y="30" width="1" height="5" rx=".5"/><rect x="146" y="26" width="1" height="9" rx=".5"/><rect x="142" y="21" width="1" height="14" rx=".5"/><rect x="138" y="22" width="1" height="13" rx=".5"/><rect x="134" y="14" width="1" height="21" rx=".5"/><rect x="130" y="22" width="1" height="13" rx=".5"/><rect x="126" y="29" width="1" height="6" rx=".5"/><rect x="122" y="30" width="1" height="5" rx=".5"/></g><defs><clipPath id="a"><path fill="#fff" d="M0 0h239v35H0z"/></clipPath></defs></svg>
