<svg width="90" height="84" fill="none" xmlns="http://www.w3.org/2000/svg"><g clip-path="url(#a)" fill="#60C538"><rect x="42.654" y="2.353" width="1" height="1" rx=".5"/><rect x="40.533" y="1.91" width="1" height="2.102" rx=".5" transform="rotate(-3 40.533 1.91)"/><rect x="38.344" y="1.404" width="1" height="3.558" rx=".5" transform="rotate(-6 38.344 1.404)"/><rect x="36.055" y=".771" width="1" height="5.518" rx=".5" transform="rotate(-9 36.055 .77)"/><rect x="34.082" y="2.132" width="1" height="3.664" rx=".5" transform="rotate(-12 34.082 2.132)"/><rect x="32.255" y="3.675" width="1" height="1.621" rx=".5" transform="rotate(-15 32.255 3.675)"/><rect x="30.03" y="3.659" width="1" height="3.021" rx=".5" transform="rotate(-18 30.03 3.659)"/><rect x="27.848" y="3.969" width="1" height="3.998" rx=".5" transform="rotate(-21 27.848 3.969)"/><rect x="25.553" y="4.157" width="1" height="5.513" rx=".5" transform="rotate(-24 25.553 4.157)"/><rect x="23.022" y="4.063" width="1" height="7.966" rx=".5" transform="rotate(-27 23.022 4.063)"/><rect x="20.604" y="4.429" width="1" height="9.735" rx=".5" transform="rotate(-30 20.604 4.43)"/><rect x="19.164" y="6.478" width="1" height="7.85" rx=".5" transform="rotate(-33 19.164 6.478)"/><rect x="17.033" y="7.414" width="1" height="8.826" rx=".5" transform="rotate(-36 17.033 7.414)"/><rect x="15.167" y="8.764" width="1" height="9.061" rx=".5" transform="rotate(-39 15.167 8.764)"/><rect x="14.164" y="11.095" width="1" height="6.924" rx=".5" transform="rotate(-42 14.164 11.095)"/><rect x="12.618" y="12.731" width="1" height="6.783" rx=".5" transform="rotate(-45 12.618 12.731)"/><rect x="12.094" y="15.282" width="1" height="4.134" rx=".5" transform="rotate(-48 12.094 15.282)"/><rect x="11.473" y="17.58" width="1" height="2.199" rx=".5" transform="rotate(-51 11.473 17.58)"/><rect x="10.502" y="19.503" width="1" height="1.501" rx=".5" transform="rotate(-54 10.502 19.503)"/><rect x="9.562" y="21.406" width="1" height="1" rx=".5" transform="rotate(-57 9.562 21.406)"/><rect x="8.372" y="23.138" width="1" height="1.324" rx=".5" transform="rotate(-60 8.372 23.138)"/><rect x="6.873" y="24.735" width="1" height="2.54" rx=".5" transform="rotate(-63 6.873 24.735)"/><rect x="4.883" y="26.186" width="1" height="4.99" rx=".5" transform="rotate(-66 4.883 26.186)"/><rect x="4.595" y="28.431" width="1" height="3.908" rx=".5" transform="rotate(-69 4.595 28.43)"/><rect x="3.385" y="30.32" width="1" height="5.033" rx=".5" transform="rotate(-72 3.385 30.32)"/><rect x="2.076" y="32.248" width="1" height="6.553" rx=".5" transform="rotate(-75 2.076 32.248)"/><rect y="34.096" width="1" height="9.833" rx=".5" transform="rotate(-78 0 34.096)"/><rect x="1.909" y="36.754" width="1" height="5.214" rx=".5" transform="rotate(-81 1.909 36.754)"/><rect x="3.069" y="39.093" width="1" height="2.407" rx=".5" transform="rotate(-84 3.069 39.093)"/><rect x="3.468" y="41.248" width="1" height="1.377" rx=".5" transform="rotate(-87 3.468 41.248)"/><rect x="2.654" y="43.353" width="1" height="3" rx=".5" transform="rotate(-90 2.654 43.353)"/><rect x="3.327" y="45.468" width="1" height="1.868" rx=".5" transform="rotate(-93 3.327 45.468)"/><rect x="3.478" y="47.581" width="1" height="2.005" rx=".5" transform="rotate(-96 3.478 47.581)"/><rect x="3.83" y="49.673" width="1" height="1.957" rx=".5" transform="rotate(-99 3.83 49.673)"/><rect x="3.666" y="51.875" width="1" height="3.188" rx=".5" transform="rotate(-102 3.666 51.875)"/><rect x="4.138" y="53.976" width="1" height="3.354" rx=".5" transform="rotate(-105 4.138 53.976)"/><rect x="5.497" y="55.802" width="1" height="1.89" rx=".5" transform="rotate(-108 5.497 55.802)"/><rect x="6.034" y="57.865" width="1" height="2.359" rx=".5" transform="rotate(-111 6.034 57.865)"/><rect x="6.823" y="59.846" width="1" height="2.523" rx=".5" transform="rotate(-114 6.823 59.846)"/><rect x="6.776" y="62.266" width="1" height="4.798" rx=".5" transform="rotate(-117 6.776 62.266)"/><rect x="8.728" y="63.672" width="1" height="2.812" rx=".5" transform="rotate(-120 8.728 63.672)"/><rect x="8.935" y="66.092" width="1" height="5.093" rx=".5" transform="rotate(-123 8.935 66.092)"/><rect x="9.64" y="68.301" width="1" height="6.539" rx=".5" transform="rotate(-126 9.64 68.301)"/><rect x="10.429" y="70.544" width="1" height="8.124" rx=".5" transform="rotate(-129 10.43 70.544)"/><rect x="11.145" y="72.969" width="1" height="10.29" rx=".5" transform="rotate(-132 11.145 72.97)"/><rect x="12.013" y="75.408" width="1" height="12.495" rx=".5" transform="rotate(-135 12.013 75.408)"/><rect x="14.638" y="76.073" width="1" height="9.949" rx=".5" transform="rotate(-138 14.638 76.073)"/><rect x="15.951" y="78.153" width="1" height="11.511" rx=".5" transform="rotate(-141 15.95 78.153)"/><rect x="17.44" y="80.135" width="1" height="12.949" rx=".5" transform="rotate(-144 17.44 80.135)"/><rect x="19.46" y="81.444" width="1" height="12.923" rx=".5" transform="rotate(-147 19.46 81.444)"/><rect x="22.391" y="81.18" width="1" height="9.514" rx=".5" transform="rotate(-150 22.391 81.18)"/><rect x="24.335" y="82.472" width="1" height="10.033" rx=".5" transform="rotate(-153 24.335 82.472)"/><rect x="27.091" y="82.012" width="1" height="6.934" rx=".5" transform="rotate(-156 27.091 82.012)"/><rect x="29.111" y="83.027" width="1" height="7.369" rx=".5" transform="rotate(-159 29.111 83.027)"/><rect x="31.918" y="81.707" width="1" height="3.109" rx=".5" transform="rotate(-162 31.918 81.707)"/><rect x="34.119" y="81.801" width="1" height="2.143" rx=".5" transform="rotate(-165 34.119 81.801)"/><rect x="36.316" y="81.687" width="1" height="1" rx=".5" transform="rotate(-168 36.316 81.687)"/><rect x="38.357" y="82.189" width="1" height="1.348" rx=".5" transform="rotate(-171 38.357 82.189)"/><rect x="40.432" y="82.577" width="1" height="1.681" rx=".5" transform="rotate(-174 40.432 82.577)"/><rect x="42.536" y="82.791" width="1" height="1.882" rx=".5" transform="rotate(-177 42.536 82.791)"/><rect x="44.654" y="83.353" width="1" height="3" rx=".5" transform="rotate(-180 44.654 83.353)"/><rect x="46.842" y="84.074" width="1" height="4.662" rx=".5" transform="rotate(177 46.842 84.074)"/><rect x="48.866" y="82.373" width="1" height="1.691" rx=".5" transform="rotate(174 48.866 82.373)"/><rect x="50.899" y="81.704" width="1" height="1" rx=".5" transform="rotate(171 50.899 81.704)"/><rect x="53.087" y="81.923" width="1" height="2.333" rx=".5" transform="rotate(168 53.087 81.923)"/><rect x="55.258" y="81.796" width="1" height="3.206" rx=".5" transform="rotate(165 55.258 81.796)"/><rect x="57.176" y="80.734" width="1" height="2.362" rx=".5" transform="rotate(162 57.176 80.734)"/><rect x="58.922" y="79.338" width="1" height="1" rx=".5" transform="rotate(159 58.922 79.338)"/><rect x="61.017" y="78.892" width="1" height="1.885" rx=".5" transform="rotate(156 61.017 78.892)"/><rect x="62.979" y="78.078" width="1" height="2.208" rx=".5" transform="rotate(153 62.979 78.078)"/><rect x="65.112" y="77.519" width="1" height="3.368" rx=".5" transform="rotate(150 65.112 77.52)"/><rect x="67.423" y="77.118" width="1" height="5.204" rx=".5" transform="rotate(147 67.423 77.118)"/><rect x="68.564" y="74.937" width="1" height="3.006" rx=".5" transform="rotate(144 68.564 74.937)"/><rect x="69.871" y="73.14" width="1" height="1.85" rx=".5" transform="rotate(141 69.871 73.14)"/><rect x="71.577" y="71.87" width="1" height="2.24" rx=".5" transform="rotate(138 71.577 71.87)"/><rect x="73.134" y="70.419" width="1" height="2.382" rx=".5" transform="rotate(135 73.134 70.419)"/><rect x="75.135" y="69.353" width="1" height="3.923" rx=".5" transform="rotate(132 75.135 69.353)"/><rect x="75.755" y="67.061" width="1" height="1.994" rx=".5" transform="rotate(129 75.755 67.061)"/><rect x="76.685" y="65.116" width="1" height="1.205" rx=".5" transform="rotate(126 76.685 65.116)"/><rect x="78.225" y="63.612" width="1" height="2.145" rx=".5" transform="rotate(123 78.225 63.612)"/><rect x="79.95" y="62.154" width="1" height="3.668" rx=".5" transform="rotate(120 79.95 62.154)"/><rect x="82.115" y="60.828" width="1" height="6.312" rx=".5" transform="rotate(117 82.115 60.828)"/><rect x="84.791" y="59.574" width="1" height="10.171" rx=".5" transform="rotate(114 84.791 59.574)"/><rect x="84.219" y="56.853" width="1" height="7.136" rx=".5" transform="rotate(111 84.22 56.853)"/><rect x="86.75" y="55.304" width="1" height="10.978" rx=".5" transform="rotate(108 86.75 55.304)"/><rect x="86.991" y="52.93" width="1" height="10.196" rx=".5" transform="rotate(105 86.991 52.93)"/><rect x="88.24" y="50.808" width="1" height="11.739" rx=".5" transform="rotate(102 88.24 50.808)"/><rect x="89.827" y="48.654" width="1" height="14.181" rx=".5" transform="rotate(99 89.827 48.654)"/><rect x="88.436" y="46.054" width="1" height="10.847" rx=".5" transform="rotate(96 88.436 46.054)"/><rect x="86.039" y="43.573" width="1" height="5.781" rx=".5" transform="rotate(93 86.039 43.573)"/><rect x="86.654" y="41.353" width="1" height="7" rx=".5" transform="rotate(90 86.654 41.353)"/><rect x="84.919" y="39.189" width="1" height="3.749" rx=".5" transform="rotate(87 84.92 39.189)"/><rect x="83.709" y="37.138" width="1" height="1.762" rx=".5" transform="rotate(84 83.71 37.138)"/><rect x="83.005" y="35.108" width="1" height="1" rx=".5" transform="rotate(81 83.005 35.108)"/><rect x="82.963" y="32.975" width="1" height="1.799" rx=".5" transform="rotate(78 82.963 32.975)"/><rect x="82.745" y="30.843" width="1" height="2.476" rx=".5" transform="rotate(75 82.745 30.843)"/><rect x="82.434" y="28.701" width="1" height="3.201" rx=".5" transform="rotate(72 82.434 28.701)"/><rect x="82.323" y="26.438" width="1" height="4.608" rx=".5" transform="rotate(69 82.323 26.438)"/><rect x="82.373" y="24.02" width="1" height="6.656" rx=".5" transform="rotate(66 82.373 24.02)"/><rect x="80.42" y="22.497" width="1" height="4.547" rx=".5" transform="rotate(63 80.42 22.497)"/><rect x="79.843" y="20.304" width="1" height="5.73" rx=".5" transform="rotate(60 79.843 20.304)"/><rect x="77.436" y="19.222" width="1" height="2.86" rx=".5" transform="rotate(57 77.436 19.222)"/><rect x="75.742" y="17.803" width="1" height="1.78" rx=".5" transform="rotate(54 75.742 17.803)"/><rect x="74.11" y="16.403" width="1" height="1" rx=".5" transform="rotate(51 74.11 16.403)"/><rect x="72.898" y="14.675" width="1" height="1.505" rx=".5" transform="rotate(48 72.898 14.675)"/><rect x="71.763" y="12.829" width="1" height="2.505" rx=".5" transform="rotate(45 71.763 12.83)"/><rect x="70.29" y="11.276" width="1" height="2.835" rx=".5" transform="rotate(42 70.29 11.276)"/><rect x="68.246" y="10.396" width="1" height="1.623" rx=".5" transform="rotate(39 68.246 10.396)"/><rect x="66.356" y="9.404" width="1" height="1" rx=".5" transform="rotate(36 66.356 9.404)"/><rect x="65.213" y="7.319" width="1" height="3.247" rx=".5" transform="rotate(33 65.213 7.32)"/><rect x="63.651" y="5.718" width="1" height="4.451" rx=".5" transform="rotate(30 63.65 5.718)"/><rect x="61.322" y="5.475" width="1" height="2.759" rx=".5" transform="rotate(27 61.322 5.475)"/><rect x="59.153" y="5.084" width="1" height="1.702" rx=".5" transform="rotate(24 59.153 5.084)"/><rect x="57.413" y="3.718" width="1" height="3.001" rx=".5" transform="rotate(21 57.413 3.718)"/><rect x="55.682" y="2.097" width="1" height="5.006" rx=".5" transform="rotate(18 55.682 2.097)"/><rect x="53.496" y="1.756" width="1" height="4.522" rx=".5" transform="rotate(15 53.496 1.756)"/><rect x="51.634" width="1" height="7.173" rx=".5" transform="rotate(12 51.634 0)"/><rect x="49.211" y=".873" width="1" height="4.678" rx=".5" transform="rotate(9 49.211 .873)"/><rect x="46.908" y="1.825" width="1" height="2.293" rx=".5" transform="rotate(6 46.908 1.825)"/><rect x="44.766" y="2.029" width="1" height="1.654" rx=".5" transform="rotate(3 44.766 2.029)"/></g><defs><clipPath id="a"><path fill="#fff" d="M0 0h90v84H0z"/></clipPath></defs></svg>
