<svg width="239" height="35" fill="none" xmlns="http://www.w3.org/2000/svg"><circle cx="1.5" cy="19.5" r="1.5" fill="#EC7580"/><circle cx="6.5" cy="19.5" r="2.5" fill="#EC7580"/><circle cx="22.5" cy="19.5" r="2.5" fill="#EC7580"/><circle cx="27.5" cy="19.5" r="1.5" fill="#EC7580"/><circle cx="37.5" cy="19.5" r="1.5" fill="#EC7580"/><circle cx="41.5" cy="19.5" r="1.5" fill="#EC7580"/><circle cx="32.5" cy="19.5" r="2.5" fill="#EC7580"/><circle cx="47" cy="19" r="3" fill="#EC7580"/><circle cx="56.5" cy="19.5" r="5.5" fill="#EC7580"/><circle cx="73" cy="19" r="10" fill="#EC7580"/><circle cx="91" cy="19" r="7" fill="#EC7580"/><circle cx="101.5" cy="19.5" r="2.5" fill="#EC7580"/><circle cx="140.5" cy="19.5" r="4.5" fill="#EC7580"/><circle cx="147.5" cy="19.5" r="1.5" fill="#EC7580"/><circle cx="174.5" cy="19.5" r="1.5" fill="#EC7580"/><circle cx="178.5" cy="19.5" r="1.5" fill="#EC7580"/><circle cx="188.5" cy="19.5" r="1.5" fill="#EC7580"/><circle cx="237.5" cy="19.5" r="1.5" fill="#EC7580"/><circle cx="153" cy="19" r="3" fill="#EC7580"/><circle cx="200" cy="19" r="3" fill="#EC7580"/><circle cx="213" cy="19" r="3" fill="#EC7580"/><circle cx="222.5" cy="19.5" r="5.5" fill="#EC7580"/><circle cx="232" cy="19" r="3" fill="#EC7580"/><circle cx="169.5" cy="19.5" r="2.5" fill="#EC7580"/><circle cx="193.5" cy="19.5" r="2.5" fill="#EC7580"/><circle cx="206.5" cy="19.5" r="2.5" fill="#EC7580"/><circle cx="183.5" cy="19.5" r="2.5" fill="#EC7580"/><circle cx="161.5" cy="19.5" r="4.5" fill="#EC7580"/><circle cx="113.5" cy="19.5" r="4.5" fill="#EC7580"/><circle cx="127" cy="19" r="8" fill="#EC7580"/><circle cx="106.5" cy="19.5" r="1.5" fill="#EC7580"/><circle cx="14.5" cy="19.5" r="4.5" fill="#EC7580"/></svg>