<svg width="239" height="35" fill="none" xmlns="http://www.w3.org/2000/svg"><g clip-path="url(#a)" fill="#F9C941"><rect x="118" y="16" width="1" height="3" rx=".5"/><rect x="114" y="15" width="1" height="6" rx=".5"/><rect x="110" y="13" width="1" height="10" rx=".5"/><rect x="106" y="10" width="1" height="16" rx=".5"/><rect x="102" y="12" width="1" height="11" rx=".5"/><rect x="98" y="15" width="1" height="5" rx=".5"/><rect x="94" y="13" width="1" height="9" rx=".5"/><rect x="90" y="12" width="1" height="11" rx=".5"/><rect x="86" y="10" width="1" height="16" rx=".5"/><rect x="82" y="7" width="1" height="22" rx=".5"/><rect x="78" y="10" width="1" height="15" rx=".5"/><rect x="74" y="8" width="1" height="20" rx=".5"/><rect x="70" width="1" height="35" rx=".5"/><rect x="66" y="2" width="1" height="31" rx=".5"/><rect x="62" y="8" width="1" height="20" rx=".5"/><rect x="58" y="8" width="1" height="20" rx=".5"/><rect x="54" y="9" width="1" height="18" rx=".5"/><rect x="50" y="6" width="1" height="24" rx=".5"/><rect x="46" y="12" width="1" height="12" rx=".5"/><rect x="42" y="16" width="1" height="3" rx=".5"/><rect x="38" y="16" width="1" height="4" rx=".5"/><rect x="34" y="14" width="1" height="7" rx=".5"/><rect x="30" y="11" width="1" height="14" rx=".5"/><rect x="26" y="12" width="1" height="11" rx=".5"/><rect x="22" y="11" width="1" height="14" rx=".5"/><rect x="18" y="8" width="1" height="19" rx=".5"/><rect x="14" y="4" width="1" height="28" rx=".5"/><rect x="10" y="10" width="1" height="15" rx=".5"/><rect x="6" y="14" width="1" height="7" rx=".5"/><rect x="2" y="16" width="1" height="4" rx=".5"/><rect y="13" width="1" height="9" rx=".5"/><rect x="4" y="15" width="1" height="5" rx=".5"/><rect x="8" y="15" width="1" height="6" rx=".5"/><rect x="12" y="15" width="1" height="6" rx=".5"/><rect x="16" y="13" width="1" height="9" rx=".5"/><rect x="20" y="13" width="1" height="10" rx=".5"/><rect x="24" y="15" width="1" height="5" rx=".5"/><rect x="28" y="14" width="1" height="7" rx=".5"/><rect x="32" y="14" width="1" height="7" rx=".5"/><rect x="36" y="11" width="1" height="14" rx=".5"/><rect x="40" y="14" width="1" height="8" rx=".5"/><rect x="44" y="10" width="1" height="15" rx=".5"/><rect x="48" y="8" width="1" height="19" rx=".5"/><rect x="52" y="8" width="1" height="19" rx=".5"/><rect x="56" y="11" width="1" height="13" rx=".5"/><rect x="60" y="4" width="1" height="27" rx=".5"/><rect x="64" y="4" width="1" height="28" rx=".5"/><rect x="68" y="2" width="1" height="32" rx=".5"/><rect x="72" y="3" width="1" height="29" rx=".5"/><rect x="76" y="13" width="1" height="10" rx=".5"/><rect x="80" y="4" width="1" height="27" rx=".5"/><rect x="84" y="4" width="1" height="28" rx=".5"/><rect x="88" y="8" width="1" height="20" rx=".5"/><rect x="92" y="7" width="1" height="21" rx=".5"/><rect x="96" y="13" width="1" height="9" rx=".5"/><rect x="100" y="15" width="1" height="6" rx=".5"/><rect x="104" y="16" width="1" height="3" rx=".5"/><rect x="108" y="16" width="1" height="4" rx=".5"/><rect x="112" y="15" width="1" height="5" rx=".5"/><rect x="116" y="15" width="1" height="5" rx=".5"/><rect x="120" y="13" width="1" height="9" rx=".5"/><rect x="124" y="11" width="1" height="13" rx=".5"/><rect x="128" y="15" width="1" height="5" rx=".5"/><rect x="132" y="16" width="1" height="3" rx=".5"/><rect x="136" y="14" width="1" height="7" rx=".5"/><rect x="140" y="13" width="1" height="9" rx=".5"/><rect x="144" y="14" width="1" height="7" rx=".5"/><rect x="148" y="16" width="1" height="3" rx=".5"/><rect x="152" y="15" width="1" height="5" rx=".5"/><rect x="156" y="15" width="1" height="6" rx=".5"/><rect x="160" y="13" width="1" height="10" rx=".5"/><rect x="164" y="10" width="1" height="15" rx=".5"/><rect x="168" y="13" width="1" height="9" rx=".5"/><rect x="172" y="15" width="1" height="5" rx=".5"/><rect x="176" y="15" width="1" height="6" rx=".5"/><rect x="180" y="14" width="1" height="7" rx=".5"/><rect x="184" y="16" width="1" height="3" rx=".5"/><rect x="188" y="15" width="1" height="6" rx=".5"/><rect x="192" y="16" width="1" height="3" rx=".5"/><rect x="196" y="15" width="1" height="6" rx=".5"/><rect x="200" y="12" width="1" height="11" rx=".5"/><rect x="204" y="9" width="1" height="18" rx=".5"/><rect x="208" y="11" width="1" height="14" rx=".5"/><rect x="212" y="13" width="1" height="9" rx=".5"/><rect x="216" y="9" width="1" height="17" rx=".5"/><rect x="220" y="10" width="1" height="15" rx=".5"/><rect x="224" y="13" width="1" height="9" rx=".5"/><rect x="228" y="14" width="1" height="8" rx=".5"/><rect x="232" y="14" width="1" height="8" rx=".5"/><rect x="236" y="14" width="1" height="7" rx=".5"/><rect x="234" y="12" width="1" height="11" rx=".5"/><rect x="230" y="15" width="1" height="5" rx=".5"/><rect x="226" y="16" width="1" height="3" rx=".5"/><rect x="222" y="11" width="1" height="13" rx=".5"/><rect x="218" y="7" width="1" height="21" rx=".5"/><rect x="214" y="13" width="1" height="9" rx=".5"/><rect x="210" y="11" width="1" height="13" rx=".5"/><rect x="206" y="8" width="1" height="19" rx=".5"/><rect x="202" y="11" width="1" height="13" rx=".5"/><rect x="198" y="14" width="1" height="7" rx=".5"/><rect x="194" y="14" width="1" height="8" rx=".5"/><rect x="190" y="15" width="1" height="5" rx=".5"/><rect x="186" y="16" width="1" height="3" rx=".5"/><rect x="182" y="16" width="1" height="4" rx=".5"/><rect x="178" y="14" width="1" height="7" rx=".5"/><rect x="174" y="14" width="1" height="8" rx=".5"/><rect x="170" y="15" width="1" height="5" rx=".5"/><rect x="166" y="16" width="1" height="3" rx=".5"/><rect x="162" y="13" width="1" height="9" rx=".5"/><rect x="158" y="11" width="1" height="13" rx=".5"/><rect x="154" y="14" width="1" height="8" rx=".5"/><rect x="150" y="15" width="1" height="5" rx=".5"/><rect x="146" y="13" width="1" height="9" rx=".5"/><rect x="142" y="11" width="1" height="14" rx=".5"/><rect x="138" y="11" width="1" height="13" rx=".5"/><rect x="134" y="7" width="1" height="21" rx=".5"/><rect x="130" y="11" width="1" height="13" rx=".5"/><rect x="126" y="15" width="1" height="6" rx=".5"/><rect x="122" y="15" width="1" height="5" rx=".5"/><rect x="238" y="16" width="1" height="4" rx=".5"/></g><defs><clipPath id="a"><path fill="#fff" d="M0 0h239v35H0z"/></clipPath></defs></svg>
