<svg xmlns="http://www.w3.org/2000/svg" width="274" height="44" fill="none"><g fill="#F04E98" clip-path="url(#a)"><path fill-rule="evenodd" d="M67.922 21.526c-1.431 3.956-3.413 8.298-5.77 11.988-2.369 3.71-5.062 6.673-7.876 7.988-1.389.649-2.789.888-4.201.637-1.418-.252-2.916-1.009-4.471-2.466-3.13-2.931-6.378-8.593-9.527-18.132-3.165-9.587-6.542-15.482-9.99-18.627C24.353 1.333 22.577.426 20.784.12c-1.797-.308-3.548-.002-5.209.74-3.29 1.47-6.29 4.677-8.834 8.439-2.557 3.78-4.71 8.203-6.27 12.215l1.22.4c1.538-3.955 3.653-8.297 6.15-11.987 2.51-3.71 5.349-6.678 8.3-7.997 1.46-.652 2.93-.894 4.406-.64 1.48.253 3.031 1.014 4.628 2.47 3.213 2.93 6.514 8.59 9.663 18.127 3.164 9.584 6.486 15.476 9.842 18.62 1.687 1.581 3.41 2.493 5.15 2.801 1.744.31 3.437.001 5.033-.745 3.157-1.474 6.006-4.687 8.407-8.446 2.412-3.778 4.427-8.198 5.878-12.208 1.448-3.678 3.447-7.715 5.815-11.145 2.383-3.45 5.086-6.208 7.909-7.433 1.396-.605 2.806-.83 4.23-.595 1.425.235 2.921.943 4.466 2.297 3.109 2.723 6.327 7.986 9.432 16.863 3.118 8.92 6.134 14.384 9.005 17.284 1.442 1.457 2.89 2.31 4.341 2.587 1.468.28 2.849-.044 4.103-.78 2.456-1.438 4.512-4.5 6.15-8.02 1.651-3.55 2.93-7.685 3.765-11.42.95-3.626 2.357-7.564 4.147-10.883 1.806-3.348 3.945-5.96 6.299-7.075 1.154-.547 2.356-.732 3.621-.473 1.278.26 2.678.985 4.19 2.355 3.036 2.752 6.398 7.993 9.988 16.75 3.612 8.815 7.429 14.236 11.293 17.123 3.912 2.925 7.857 3.236 11.535 1.874 3.619-1.34 6.925-4.277 9.729-7.74 2.813-3.477 5.17-7.544 6.872-11.234l.003-.008.004-.008c1.652-3.897 3.941-8.175 6.662-11.81 2.732-3.65 5.849-6.585 9.132-7.893 1.63-.65 3.29-.895 4.974-.64 1.684.255 3.438 1.018 5.239 2.458 3.62 2.894 7.371 8.472 11.007 17.868 3.66 9.461 7.567 15.276 11.547 18.373 1.999 1.555 4.027 2.433 6.054 2.73 2.028.295 4.01.003 5.905-.72 3.769-1.437 7.229-4.585 10.176-8.3 2.956-3.73 5.446-8.093 7.251-12.052l-1.194-.46c-1.777 3.896-4.22 8.174-7.104 11.81-2.893 3.65-6.181 6.59-9.625 7.903-1.71.652-3.45.9-5.206.643-1.755-.256-3.571-1.023-5.42-2.462-3.718-2.894-7.53-8.47-11.165-17.864-3.659-9.458-7.502-15.27-11.376-18.367-1.947-1.556-3.915-2.437-5.879-2.734-1.965-.298-3.878-.003-5.699.722-3.616 1.441-6.904 4.595-9.684 8.31-2.789 3.727-5.12 8.087-6.798 12.044-1.671 3.623-3.979 7.6-6.715 10.98-2.747 3.394-5.879 6.127-9.174 7.347-3.236 1.199-6.684.961-10.234-1.693-3.6-2.69-7.316-7.876-10.899-16.619-3.606-8.8-7.048-14.24-10.29-17.178-1.628-1.475-3.235-2.347-4.818-2.67-1.594-.326-3.104-.082-4.495.577a9.3 9.3 0 0 0-1.272.736c-2.184 1.497-4.052 4.01-5.594 6.868-1.847 3.425-3.283 7.456-4.248 11.143l.629.139-.634-.12a63.048 63.048 0 0 1-1.903 6.74 47.07 47.07 0 0 1-1.786 4.462c-1.624 3.49-3.554 6.254-5.656 7.486-1.025.6-2.066.823-3.143.617-1.095-.21-2.316-.878-3.647-2.222-2.675-2.702-5.623-7.96-8.731-16.848-3.122-8.93-6.422-14.426-9.77-17.36-1.685-1.476-3.403-2.322-5.131-2.607-1.732-.287-3.416-.002-5.012.69-3.161 1.372-6.028 4.365-8.449 7.872-2.434 3.523-4.472 7.646-5.943 11.385l-.005.015Zm59.81-.11.629.139.003-.01.002-.01-.634-.12Z" clip-rule="evenodd"/><path d="m127.103 21.277-.005.02.634.119-.629-.14ZM127.732 21.416l.629.139.003-.01.002-.01-.634-.12Z"/></g><defs><clipPath id="a"><path fill="#fff" d="M0 0h274v44H0z"/></clipPath></defs></svg>
