<svg width="274" height="44" fill="none" xmlns="http://www.w3.org/2000/svg"><g clip-path="url(#a)" fill="red" fill-opacity=".2"><path fill-rule="evenodd" clip-rule="evenodd" d="M67.84 33.404c2.58-3.662 4.75-7.97 6.319-11.896l.006-.015c1.613-3.715 3.847-7.809 6.515-11.308 2.657-3.486 5.794-6.448 9.238-7.802 1.734-.682 3.554-.959 5.422-.679 1.867.28 3.735 1.109 5.578 2.571 3.666 2.91 7.285 8.368 10.709 17.24 3.403 8.816 6.696 14.07 9.725 16.809 1.507 1.362 2.92 2.076 4.221 2.323 1.291.245 2.532.042 3.733-.53 2.441-1.163 4.679-3.838 6.548-7.234 1.856-3.373 3.191-7.055 4.09-10.702l1.265.254c-.917 3.72-2.286 7.508-4.2 10.985-1.901 3.454-4.293 6.413-7.107 7.753-1.428.68-2.971.947-4.591.64-1.611-.307-3.237-1.168-4.867-2.641-3.244-2.934-6.617-8.398-10.037-17.26-3.4-8.807-6.925-14.03-10.335-16.736-1.696-1.346-3.35-2.06-4.94-2.298-1.589-.238-3.16-.008-4.705.599-3.113 1.224-6.08 3.97-8.687 7.39-2.595 3.404-4.784 7.41-6.37 11.06-1.59 3.982-3.8 8.372-6.444 12.123-2.635 3.738-5.754 6.92-9.195 8.375-1.735.734-3.562 1.034-5.442.732-1.878-.302-3.752-1.196-5.6-2.764-3.675-3.119-7.318-8.97-10.787-18.49-3.448-9.463-7.064-15.079-10.588-17.99-1.752-1.448-3.465-2.215-5.115-2.47-1.65-.256-3.286-.01-4.9.643-3.254 1.318-6.37 4.273-9.116 7.95-2.735 3.662-5.052 7.97-6.737 11.896L.24 21.495c1.712-3.986 4.072-8.378 6.875-12.132 2.792-3.739 6.076-6.914 9.661-8.365 1.806-.731 3.699-1.03 5.637-.729 1.937.3 3.868 1.19 5.766 2.759 3.776 3.12 7.48 8.974 10.95 18.496 3.449 9.465 7.007 15.083 10.438 17.995 1.706 1.448 3.362 2.211 4.944 2.466 1.58.254 3.14.01 4.678-.64 3.102-1.314 6.056-4.263 8.65-7.941Z"/><path fill-rule="evenodd" clip-rule="evenodd" d="M74.387 33.596c2.83-3.636 5.21-7.913 6.928-11.809l.004-.008.004-.008c1.77-3.691 4.221-7.759 7.147-11.235 2.917-3.465 6.353-6.397 10.108-7.734 3.807-1.356 7.892-1.05 11.953 1.869 4.015 2.886 7.985 8.306 11.743 17.123l.213.496a90.488 90.488 0 0 0 2.708 5.746c2.643 5.099 5.144 8.43 7.462 10.41 1.57 1.342 3.027 2.038 4.362 2.269 1.326.23 2.588.01 3.8-.576 2.464-1.191 4.692-3.885 6.569-7.287 1.865-3.379 2.956-7.031 3.944-10.659l1.271.23c-1.005 3.688-2.14 7.488-4.06 10.967-1.907 3.456-4.288 6.432-7.121 7.801-1.436.695-2.994.978-4.642.693-1.639-.283-3.31-1.119-5.005-2.566-3.374-2.883-6.955-8.29-10.707-17.09-3.725-8.74-7.589-13.928-11.335-16.62-3.701-2.66-7.304-2.901-10.688-1.697-3.436 1.224-6.695 3.96-9.55 7.353-2.846 3.38-5.246 7.357-6.984 10.979-1.746 3.958-4.17 8.318-7.07 12.045-2.894 3.717-6.31 6.867-10.063 8.305-1.887.723-3.867 1.015-5.9.72-2.031-.297-4.073-1.174-6.095-2.728-4.027-3.095-8.024-8.907-11.831-18.368-3.78-9.39-7.742-14.968-11.612-17.863-3.82-2.858-7.564-3.118-11.096-1.823-3.59 1.316-7.012 4.26-10.02 7.908-3 3.636-5.54 7.914-7.387 11.81L.25 21.772c1.878-3.96 4.467-8.324 7.542-12.053 3.065-3.717 6.662-6.861 10.572-8.295C22.333-.029 26.573.3 30.758 3.432c4.136 3.095 8.2 8.909 12.008 18.372 3.78 9.394 7.68 14.973 11.448 17.868 1.874 1.441 3.705 2.209 5.467 2.465 1.762.257 3.499.009 5.199-.643 3.424-1.311 6.668-4.25 9.507-7.898Z"/><path fill-rule="evenodd" clip-rule="evenodd" d="M64.826 33.958c2.476-3.662 4.558-7.971 6.062-11.897l.006-.016c1.546-3.713 3.689-7.807 6.247-11.306 2.547-3.484 5.557-6.45 8.869-7.808 1.669-.684 3.425-.963 5.228-.682 1.802.282 3.599 1.115 5.368 2.58 3.518 2.91 6.987 8.369 10.27 17.237 3.264 8.817 6.456 14.07 9.41 16.808 1.469 1.361 2.848 2.072 4.119 2.318 1.261.244 2.477.042 3.658-.528 2.403-1.162 4.616-3.837 6.46-7.233 1.831-3.373 3.247-7.61 4.109-11.254l1.263.263c-.88 3.721-2.326 8.044-4.214 11.522-1.875 3.453-4.24 6.413-7.015 7.755-1.409.68-2.931.948-4.528.64-1.586-.308-3.181-1.171-4.772-2.646-3.166-2.935-6.435-8.4-9.716-17.261-3.261-8.81-6.642-14.033-9.91-16.738-1.625-1.344-3.205-2.053-4.719-2.29-1.512-.236-3.009-.009-4.484.596-2.977 1.22-5.82 3.963-8.322 7.385-2.488 3.404-4.588 7.41-6.109 11.06-1.525 3.982-3.644 8.371-6.18 12.123-2.525 3.735-5.518 6.92-8.826 8.38-1.67.736-3.433 1.039-5.249.734-1.812-.303-3.615-1.201-5.388-2.77-3.527-3.121-7.02-8.972-10.346-18.49-3.307-9.465-6.776-15.081-10.153-17.991-1.68-1.447-3.316-2.208-4.888-2.462-1.569-.254-3.128-.01-4.67.64-3.112 1.314-6.098 4.265-8.733 7.944-2.623 3.663-4.846 7.972-6.462 11.897L0 22.048c1.64-3.985 3.903-8.377 6.592-12.13C9.268 6.18 12.419 3 15.866 1.545 17.604.813 19.43.512 21.3.815c1.869.302 3.727 1.197 5.548 2.766 3.623 3.121 7.174 8.975 10.501 18.495 3.308 9.467 6.721 15.086 10.01 17.997 1.636 1.447 3.218 2.205 4.723 2.457 1.503.252 2.99.01 4.457-.637 2.967-1.31 5.798-4.255 8.286-7.935Z"/><path fill-rule="evenodd" clip-rule="evenodd" d="M59.611 33.523c2.26-3.69 4.162-8.033 5.534-11.99l.005-.015c1.41-3.738 3.365-7.86 5.698-11.383 2.32-3.504 5.071-6.5 8.11-7.876 1.537-.696 3.163-.983 4.838-.695 1.67.288 3.322 1.139 4.938 2.615 3.213 2.935 6.377 8.431 9.37 17.36 2.982 8.89 5.775 14.17 8.29 16.902 1.254 1.361 2.391 2.038 3.394 2.258.979.215 1.921.016 2.858-.56.953-.585 1.883-1.553 2.771-2.833.884-1.275 1.704-2.827 2.449-4.544 1.491-3.434 2.622-7.21 3.411-10.896l1.257.29c-.023.107-.342-.109-.365 0-.011.045.328.088.318.134-.798 3.61-1.952 7.535-3.418 10.913-.764 1.76-1.619 3.385-2.56 4.742-.938 1.352-1.983 2.47-3.144 3.184-1.176.723-2.484 1.034-3.878.727-1.371-.301-2.729-1.178-4.081-2.646-2.695-2.926-5.549-8.405-8.539-17.322-2.978-8.88-6.065-14.142-9.046-16.865-1.48-1.352-2.91-2.056-4.264-2.29-1.352-.232-2.694-.01-4.026.593-2.7 1.222-5.29 3.975-7.577 7.428-2.272 3.43-4.189 7.467-5.577 11.147-1.392 4.01-3.324 8.428-5.637 12.206-2.3 3.757-5.034 6.973-8.069 8.45-1.537.75-3.172 1.062-4.86.75-1.68-.312-3.337-1.228-4.956-2.81-3.22-3.144-6.404-9.035-9.438-18.617-3.02-9.54-6.187-15.2-9.268-18.13-1.53-1.456-3.012-2.212-4.419-2.463-1.402-.25-2.8-.011-4.194.638-2.823 1.315-5.545 4.28-7.953 7.991-2.395 3.69-4.424 8.034-5.9 11.99L.46 21.52c1.496-4.011 3.56-8.434 6.012-12.213 2.439-3.759 5.317-6.97 8.48-8.443C16.548.119 18.24-.191 19.976.119c1.732.31 3.44 1.222 5.103 2.804 3.308 3.146 6.546 9.04 9.58 18.624 3.021 9.542 6.138 15.204 9.138 18.135 1.49 1.457 2.922 2.209 4.27 2.458 1.34.248 2.67.012 3.997-.633 2.691-1.311 5.273-4.27 7.546-7.984Z"/><path fill-rule="evenodd" clip-rule="evenodd" d="M71.344 33.605c2.715-3.635 4.997-7.913 6.645-11.81l.004-.008.003-.008c1.697-3.69 4.048-7.757 6.854-11.233 2.797-3.464 6.094-6.4 9.704-7.741 3.67-1.363 7.605-1.051 11.508 1.874 3.853 2.887 7.66 8.308 11.263 17.123 3.579 8.755 6.994 13.953 10.111 16.647 1.551 1.34 3 2.035 4.333 2.266 1.325.23 2.594.01 3.818-.577 2.484-1.192 4.747-3.888 6.642-7.288 1.882-3.378 3.301-7.038 4.247-10.662l1.268.24c-.964 3.692-2.423 7.484-4.363 10.964-1.927 3.458-4.343 6.432-7.195 7.8-1.445.694-3.009.977-4.657.692-1.639-.284-3.303-1.12-4.98-2.569-3.338-2.884-6.838-8.293-10.436-17.095-3.574-8.743-7.28-13.93-10.869-16.62-3.541-2.653-6.978-2.89-10.205-1.692-3.286 1.22-6.409 3.953-9.15 7.347-2.728 3.38-5.03 7.356-6.697 10.98-1.674 3.957-3.998 8.317-6.78 12.044-2.773 3.714-6.052 6.869-9.66 8.31-1.816.726-3.724 1.02-5.685.723-1.96-.298-3.923-1.18-5.864-2.735-3.864-3.097-7.697-8.91-11.348-18.367C36.23 12.816 32.43 7.24 28.721 4.346c-1.845-1.439-3.655-2.206-5.406-2.462-1.75-.256-3.485-.009-5.19.643-3.434 1.313-6.713 4.253-9.6 7.902-2.876 3.637-5.312 7.915-7.084 11.811l-1.195-.459c1.8-3.96 4.283-8.323 7.232-12.051 2.939-3.716 6.39-6.864 10.15-8.301 1.89-.723 3.868-1.016 5.891-.72 2.023.296 4.046 1.175 6.04 2.73 3.969 3.097 7.866 8.912 11.517 18.373 3.626 9.396 7.367 14.974 10.978 17.868 1.796 1.44 3.545 2.203 5.224 2.458 1.678.255 3.334.009 4.958-.64 3.275-1.308 6.384-4.242 9.108-7.892Z"/><path fill-rule="evenodd" clip-rule="evenodd" d="M209.003 10.609c-2.482 3.662-4.57 7.971-6.077 11.897l-.006.015c-1.551 3.714-3.699 7.808-6.264 11.307-2.553 3.483-5.572 6.45-8.891 7.807-1.674.684-3.433.963-5.241.682-1.805-.282-3.607-1.115-5.38-2.578-3.528-2.912-7.006-8.37-10.298-17.239-3.274-8.822-6.34-14.061-9.105-16.773-1.375-1.35-2.637-2.034-3.77-2.26-1.117-.221-2.186-.012-3.229.567-2.14 1.188-4.094 3.891-5.744 7.327-1.637 3.406-2.922 7.417-3.789 11.074l-1.265-.253c.879-3.71 2.188-7.801 3.869-11.301 1.667-3.47 3.755-6.475 6.259-7.865 1.279-.71 2.682-1.007 4.172-.711 1.475.292 2.956 1.15 4.442 2.609 2.961 2.904 6.099 8.346 9.386 17.202 3.269 8.81 6.66 14.032 9.937 16.737 1.629 1.345 3.214 2.054 4.732 2.29 1.516.237 3.018.01 4.497-.595 2.986-1.22 5.836-3.963 8.344-7.385 2.496-3.404 4.601-7.41 6.126-11.06 1.53-3.983 3.653-8.372 6.196-12.123 2.532-3.736 5.533-6.92 8.849-8.38 1.674-.736 3.441-1.039 5.261-.734 1.816.303 3.624 1.201 5.401 2.77 3.536 3.12 7.038 8.972 10.373 18.49 3.316 9.464 6.794 15.08 10.18 17.99 1.683 1.447 3.325 2.21 4.901 2.464 1.575.253 3.138.01 4.685-.641 3.121-1.314 6.114-4.266 8.756-7.945 2.63-3.662 4.859-7.971 6.479-11.897l1.211.422c-1.645 3.985-3.914 8.377-6.609 12.13-2.684 3.738-5.843 6.917-9.298 8.371-1.742.734-3.572 1.034-5.447.731-1.874-.302-3.736-1.196-5.562-2.765-3.632-3.122-7.193-8.975-10.529-18.495-3.317-9.467-6.739-15.086-10.037-17.997-1.639-1.447-3.226-2.205-4.736-2.458-1.507-.252-2.998-.01-4.47.637-2.976 1.31-5.814 4.255-8.309 7.936Z"/><path fill-rule="evenodd" clip-rule="evenodd" d="M214.471 10.499c-2.266 3.69-4.172 8.033-5.549 11.99l-.005.014c-1.414 3.739-3.373 7.86-5.713 11.384-2.327 3.504-5.084 6.5-8.131 7.876-1.54.695-3.17.983-4.848.694-1.673-.288-3.33-1.138-4.95-2.614-3.221-2.935-6.393-8.431-9.395-17.36-2.989-8.89-5.789-14.17-8.312-16.902-1.256-1.361-2.397-2.038-3.403-2.258-.983-.216-1.928-.017-2.868.56-.956.585-1.889 1.553-2.779 2.833-.886 1.275-1.708 2.827-2.456 4.544-1.494 3.434-2.668 7.477-3.459 11.163l-1.271-.23c.802-3.734 1.995-7.853 3.528-11.375.767-1.761 1.624-3.385 2.567-4.742.94-1.352 1.989-2.47 3.152-3.184 1.179-.722 2.489-1.033 3.886-.727 1.373.301 2.735 1.178 4.091 2.646 2.701 2.926 5.563 8.405 8.561 17.322 2.985 8.88 6.081 14.142 9.069 16.865 1.485 1.352 2.918 2.056 4.278 2.29 1.355.233 2.702.01 4.038-.593 2.707-1.222 5.305-3.976 7.597-7.428 2.278-3.43 4.2-7.467 5.592-11.147 1.395-4.01 3.333-8.428 5.652-12.206 2.307-3.757 5.047-6.973 8.09-8.45 1.54-.75 3.179-1.061 4.869-.749 1.685.31 3.346 1.227 4.969 2.808 3.228 3.145 6.421 9.036 9.463 18.619 3.028 9.54 6.204 15.199 9.292 18.129 1.534 1.456 3.021 2.212 4.432 2.463 1.407.25 2.81.012 4.207-.638 2.831-1.315 5.56-4.28 7.975-7.991 2.4-3.69 4.435-8.033 5.915-11.99l1.224.387c-1.5 4.011-3.569 8.434-6.028 12.213-2.445 3.759-5.331 6.97-8.501 8.443-1.603.745-3.298 1.054-5.038.744-1.736-.309-3.448-1.221-5.116-2.803-3.316-3.146-6.563-9.04-9.605-18.624-3.029-9.542-6.153-15.204-9.162-18.135-1.494-1.457-2.93-2.21-4.281-2.458-1.345-.249-2.68-.013-4.01.633-2.699 1.311-5.288 4.27-7.567 7.984Z"/><path fill-rule="evenodd" clip-rule="evenodd" d="M206.399 10.618c-2.581 3.661-4.752 7.97-6.319 11.895l-.006.016c-1.613 3.714-3.848 7.808-6.515 11.308-2.658 3.485-5.795 6.447-9.239 7.801-1.734.682-3.554.96-5.422.68-1.867-.28-3.735-1.11-5.578-2.572-3.666-2.91-7.284-8.368-10.709-17.239-3.404-8.82-6.593-14.06-9.468-16.772-1.431-1.35-2.748-2.04-3.939-2.267-1.176-.224-2.3-.011-3.391.571-2.231 1.191-4.264 3.897-5.979 7.33-1.701 3.405-3.037 7.415-3.939 11.07l-1.263-.262c.915-3.71 2.276-7.803 4.025-11.304 1.735-3.473 3.907-6.475 6.505-7.863 1.324-.706 2.771-1 4.306-.706 1.521.29 3.056 1.143 4.602 2.601 3.079 2.904 6.343 8.347 9.762 17.204 3.399 8.807 6.924 14.03 10.335 16.737 1.696 1.346 3.349 2.059 4.939 2.297 1.589.238 3.161.009 4.705-.599 3.113-1.224 6.08-3.97 8.687-7.39 2.595-3.404 4.784-7.41 6.37-11.059 1.591-3.983 3.8-8.372 6.445-12.124 2.634-3.738 5.754-6.919 9.194-8.375 1.735-.734 3.563-1.033 5.443-.731 1.877.302 3.751 1.195 5.599 2.763 3.675 3.12 7.318 8.971 10.787 18.491 3.449 9.462 7.064 15.078 10.588 17.99 1.752 1.448 3.466 2.214 5.116 2.47 1.649.255 3.285.01 4.899-.644 3.255-1.317 6.37-4.273 9.116-7.95 2.735-3.662 5.053-7.97 6.737-11.895l1.205.436c-1.711 3.986-4.071 8.379-6.874 12.132-2.793 3.74-6.076 6.914-9.662 8.366-1.805.73-3.698 1.029-5.637.728-1.937-.3-3.868-1.19-5.766-2.758-3.776-3.12-7.479-8.974-10.949-18.497-3.449-9.464-7.007-15.083-10.439-17.995-1.706-1.448-3.361-2.21-4.944-2.465-1.579-.254-3.141-.01-4.677.64-3.103 1.313-6.057 4.262-8.65 7.94Z"/><path fill-rule="evenodd" clip-rule="evenodd" d="M212.086 10.508c-2.357 3.69-4.338 8.032-5.77 11.988l-.005.014c-1.471 3.74-3.509 7.862-5.943 11.386-2.421 3.506-5.288 6.499-8.448 7.87-1.596.694-3.28.978-5.012.692-1.729-.286-3.446-1.131-5.131-2.607-3.349-2.934-6.648-8.43-9.771-17.36-3.108-8.89-6.019-14.17-8.643-16.901-1.306-1.36-2.497-2.043-3.556-2.266-1.038-.22-2.035-.015-3.018.564-2.023 1.192-3.879 3.913-5.447 7.38-1.554 3.432-2.774 7.474-3.598 11.16l-1.268-.24c.834-3.734 2.075-7.854 3.67-11.377 1.58-3.49 3.56-6.52 5.944-7.924 1.221-.72 2.57-1.026 4.006-.723 1.416.299 2.828 1.17 4.238 2.638 2.81 2.926 5.786 8.406 8.905 17.324 3.104 8.878 6.323 14.14 9.432 16.864 1.544 1.353 3.041 2.061 4.466 2.297 1.423.235 2.834.01 4.23-.596 2.822-1.225 5.526-3.983 7.908-7.433 2.369-3.43 4.368-7.466 5.815-11.145 1.451-4.01 3.466-8.43 5.879-12.208 2.4-3.759 5.25-6.972 8.406-8.446 1.597-.746 3.289-1.054 5.034-.745 1.739.309 3.462 1.22 5.15 2.8 3.356 3.145 6.678 9.037 9.842 18.622 3.148 9.537 6.45 15.196 9.663 18.127 1.596 1.456 3.147 2.217 4.627 2.47 1.477.253 2.947.011 4.406-.64 2.952-1.32 5.791-4.288 8.3-7.997 2.497-3.69 4.613-8.032 6.151-11.988l1.219.4c-1.56 4.013-3.713 8.436-6.27 12.216-2.544 3.761-5.544 6.968-8.834 8.438-1.661.742-3.412 1.048-5.209.74-1.793-.306-3.568-1.213-5.302-2.795-3.448-3.145-6.826-9.04-9.99-18.626-3.149-9.54-6.398-15.201-9.528-18.133-1.555-1.457-3.053-2.214-4.471-2.466-1.412-.25-2.812-.011-4.201.638-2.814 1.314-5.507 4.277-7.876 7.987Z"/><path fill-rule="evenodd" clip-rule="evenodd" d="M199.851 10.425c-2.83 3.636-5.21 7.913-6.928 11.81l-.003.007-.004.009c-1.77 3.69-4.222 7.758-7.148 11.234-2.917 3.465-6.352 6.398-10.107 7.735-3.808 1.355-7.893 1.049-11.953-1.87-4.015-2.885-7.986-8.306-11.744-17.122-3.732-8.756-7.227-13.957-10.382-16.653-1.571-1.341-3.028-2.038-4.363-2.268a6.089 6.089 0 0 0-.274-.041c-1.226-.157-2.398.071-3.526.617-2.463 1.19-4.692 3.885-6.569 7.286-1.864 3.38-3.329 7.358-4.316 10.986h-.365l-.892-.289c1.005-3.687 2.498-7.755 4.418-11.235 1.907-3.456 4.288-6.432 7.121-7.801 1.437-.694 2.994-.978 4.643-.693 1.639.284 3.309 1.12 5.004 2.567 3.374 2.882 6.955 8.288 10.707 17.09 3.725 8.74 7.589 13.927 11.335 16.62 3.701 2.659 7.305 2.9 10.688 1.696 3.436-1.223 6.695-3.96 9.551-7.353 2.846-3.38 5.245-7.356 6.983-10.978 1.746-3.958 4.17-8.319 7.071-12.046 2.893-3.716 6.31-6.866 10.062-8.304 1.888-.723 3.868-1.016 5.9-.72 2.032.296 4.073 1.173 6.095 2.728 4.027 3.094 8.024 8.907 11.832 18.367 3.779 9.391 7.742 14.968 11.611 17.863 3.82 2.859 7.564 3.119 11.096 1.824 3.591-1.316 7.012-4.26 10.021-7.908 2.999-3.637 5.539-7.914 7.386-11.81l1.187.475c-1.877 3.96-4.467 8.325-7.541 12.053-3.066 3.717-6.662 6.861-10.573 8.295-3.968 1.455-8.208 1.125-12.393-2.006-4.137-3.095-8.2-8.91-12.009-18.373-3.78-9.393-7.68-14.972-11.447-17.868-1.875-1.44-3.705-2.208-5.468-2.465-1.761-.256-3.498-.008-5.199.643-3.423 1.312-6.667 4.25-9.507 7.899Z"/><path fill-rule="evenodd" clip-rule="evenodd" d="M67.922 21.526c-1.431 3.956-3.413 8.298-5.77 11.988-2.369 3.71-5.062 6.673-7.876 7.988-1.389.649-2.789.888-4.201.637-1.418-.252-2.916-1.009-4.471-2.466-3.13-2.931-6.378-8.593-9.527-18.132-3.165-9.587-6.542-15.482-9.99-18.627C24.353 1.333 22.577.426 20.784.12c-1.797-.308-3.548-.002-5.209.74-3.29 1.47-6.29 4.677-8.834 8.439-2.557 3.78-4.71 8.203-6.27 12.215l1.22.4c1.538-3.955 3.653-8.297 6.15-11.987 2.51-3.71 5.349-6.678 8.3-7.997 1.46-.652 2.93-.894 4.406-.64 1.48.253 3.031 1.014 4.628 2.47 3.213 2.93 6.514 8.59 9.663 18.127 3.164 9.584 6.486 15.476 9.842 18.62 1.687 1.581 3.41 2.493 5.15 2.801 1.744.31 3.437.001 5.033-.745 3.157-1.474 6.006-4.687 8.407-8.446 2.412-3.778 4.427-8.198 5.878-12.208 1.448-3.678 3.447-7.715 5.815-11.145 2.383-3.45 5.086-6.208 7.909-7.433 1.396-.605 2.807-.83 4.23-.595 1.425.235 2.921.943 4.466 2.297 3.109 2.723 6.327 7.986 9.432 16.863 3.118 8.92 6.134 14.384 9.005 17.284 1.442 1.457 2.89 2.31 4.341 2.587 1.468.28 2.849-.044 4.103-.78 2.456-1.438 4.512-4.5 6.15-8.02 1.651-3.55 2.93-7.685 3.765-11.42.95-3.626 2.357-7.564 4.147-10.883 1.806-3.348 3.945-5.96 6.299-7.075 1.154-.547 2.356-.732 3.621-.473 1.278.26 2.678.985 4.19 2.355 3.036 2.752 6.398 7.993 9.988 16.75 3.612 8.815 7.429 14.236 11.293 17.123 3.912 2.925 7.857 3.236 11.535 1.874 3.619-1.34 6.925-4.277 9.729-7.74 2.813-3.477 5.17-7.544 6.872-11.234l.003-.008.004-.008c1.652-3.897 3.941-8.175 6.662-11.81 2.732-3.65 5.849-6.585 9.132-7.893 1.63-.65 3.29-.895 4.974-.64 1.684.255 3.438 1.018 5.239 2.458 3.62 2.894 7.371 8.472 11.007 17.868 3.66 9.461 7.567 15.276 11.547 18.373 1.999 1.555 4.027 2.433 6.054 2.73 2.028.295 4.01.003 5.905-.72 3.769-1.437 7.229-4.585 10.176-8.3 2.956-3.73 5.446-8.093 7.251-12.052l-1.194-.46c-1.777 3.896-4.22 8.174-7.103 11.81-2.894 3.65-6.182 6.59-9.626 7.903-1.71.652-3.45.9-5.206.643-1.755-.256-3.571-1.023-5.42-2.462-3.718-2.894-7.53-8.47-11.165-17.864-3.659-9.458-7.502-15.27-11.376-18.367-1.947-1.556-3.915-2.437-5.879-2.734-1.965-.298-3.878-.003-5.699.722-3.616 1.441-6.904 4.595-9.684 8.31-2.789 3.727-5.12 8.087-6.798 12.044-1.671 3.623-3.979 7.6-6.715 10.98-2.747 3.394-5.879 6.127-9.174 7.347-3.236 1.199-6.684.961-10.234-1.693-3.6-2.69-7.316-7.876-10.899-16.619-3.606-8.8-7.048-14.24-10.29-17.178-1.628-1.475-3.235-2.347-4.818-2.67-1.594-.326-3.104-.082-4.495.577a9.3 9.3 0 0 0-1.272.736c-2.184 1.497-4.052 4.01-5.594 6.868-1.847 3.425-3.283 7.456-4.248 11.143l.629.139-.634-.12a63.048 63.048 0 0 1-1.903 6.74 47.07 47.07 0 0 1-1.786 4.462c-1.624 3.49-3.554 6.254-5.656 7.486-1.025.6-2.066.823-3.143.617-1.095-.21-2.316-.878-3.647-2.222-2.675-2.702-5.623-7.96-8.731-16.848-3.122-8.93-6.422-14.426-9.77-17.36-1.685-1.476-3.403-2.322-5.131-2.607-1.732-.287-3.416-.002-5.012.69-3.161 1.372-6.028 4.365-8.449 7.872-2.434 3.523-4.472 7.646-5.943 11.385l-.005.015Zm59.81-.11.629.139.003-.01.002-.01-.634-.12Z"/><path d="m127.103 21.277-.005.02.634.119-.629-.14ZM127.732 21.416l.629.139.003-.01.002-.01-.634-.12Z"/></g><defs><clipPath id="a"><path fill="#fff" d="M0 0h274v44H0z"/></clipPath></defs></svg>