<svg width="274" height="50" fill="none" xmlns="http://www.w3.org/2000/svg"><g clip-path="url(#a)"><path style="mix-blend-mode:darken" d="M17.432 24.53c7.026.784 5.018-1.053 17.234-2.831 12.216-1.778 11.489 1.887 20.105 2.83 8.73.956 6.259-7.217 14.752-7.217 8.494 0 8.599 6.015 16.883 6.015 8.284 0 10.852-23.746 26.11-22.176 15.257 1.569 16.096 21.705 27.158 21.705 11.063 0 15.834-13.546 27.683-12.186 11.901 1.36 16.567 9.99 28.47 9.99 11.901 0 13.159-20.66 27.42-20.66 14.314 0 10.107 9.885 19.177 17.312C251.443 24.687 274 25 274 25s-22.557.367-31.576 7.741c-9.07 7.375-4.863 17.26-19.125 17.26-14.26 0-15.518-20.66-27.42-20.66-11.901 0-16.567 8.63-28.469 9.99-11.902 1.36-16.673-12.134-27.683-12.134-11.011 0-11.902 20.136-27.159 21.706-15.257 1.569-17.879-22.177-26.11-22.177-8.231 0-8.441 6.015-16.882 6.015-8.494 0-5.99-8.233-14.805-7.268-8.617.943-7.89 4.608-20.105 2.83-12.216-1.778-10.208-3.615-17.234-2.83-7.088.791-8.617-.42-17.43-.42-.17-.17 15.537-.524 17.43-.524Z" fill="url(#b)"/><path style="mix-blend-mode:darken" d="M256.568 25.471c-7.026-.784-5.017 1.052-17.234 2.83-12.216 1.779-11.488-1.886-20.105-2.83-8.731-.956-6.259 7.218-14.752 7.218-8.494 0-8.599-6.015-16.883-6.015-8.284 0-10.853 23.745-26.11 22.176-15.257-1.569-16.096-21.705-27.158-21.705-11.063 0-15.834 13.546-27.683 12.186-11.9-1.36-16.567-9.99-28.47-9.99-11.9 0-13.159 20.66-27.42 20.66-14.314 0-10.107-9.885-19.177-17.312C22.556 25.314 0 25 0 25s22.557-.366 31.576-7.74C40.646 9.885 36.439 0 50.7 0c14.26 0 15.518 20.66 27.42 20.66 11.901 0 16.567-8.63 28.469-9.99 11.902-1.36 16.673 12.134 27.683 12.134 11.011 0 11.902-20.137 27.159-21.706 15.257-1.569 17.879 22.176 26.11 22.176 8.232 0 8.441-6.014 16.882-6.014 8.494 0 5.991 8.233 14.805 7.268 8.617-.943 7.889-4.608 20.105-2.83 12.217 1.778 10.208 3.614 17.234 2.83 6.49-.725 10.749.42 17.431.42.17.17-15.538.523-17.431.523Z" fill="url(#c)"/></g><defs><linearGradient id="b" x1="136.997" y1="4.861" x2="136.997" y2="50.001" gradientUnits="userSpaceOnUse"><stop stop-color="#EB6FFF"/><stop offset="1" stop-color="#FF4343"/></linearGradient><linearGradient id="c" x1="137.003" y1="45.14" x2="137.003" y2="0" gradientUnits="userSpaceOnUse"><stop stop-color="#6FCBFF"/><stop offset="1" stop-color="#CE43FF"/></linearGradient><clipPath id="a"><path fill="#fff" d="M0 0h274v50.001H0z"/></clipPath></defs></svg>
