<svg width="239" height="35" fill="none" xmlns="http://www.w3.org/2000/svg"><g clip-path="url(#a)" fill="#6FCBFF"><path d="M4 30h3v2H4zM8 30h3v2H8zM8 27h3v2H8zM8 24h3v2H8zM12 33h3v2h-3zM12 30h3v2h-3zM12 27h3v2h-3zM12 24h3v2h-3zM12 21h3v2h-3zM16 33h3v2h-3zM16 30h3v2h-3zM16 27h3v2h-3zM20 33h3v2h-3zM20 30h3v2h-3zM24 33h3v2h-3zM24 30h3v2h-3zM36 33h3v2h-3zM40 33h3v2h-3zM36 30h3v2h-3zM20 27h3v2h-3zM28 33h3v2h-3zM28 30h3v2h-3zM28 27h3v2h-3z"/><path d="M28 33h3v2h-3zM44 33h3v2h-3zM28 30h3v2h-3zM44 30h3v2h-3zM28 27h3v2h-3zM44 27h3v2h-3zM16 24h3v2h-3zM16 21h3v2h-3zM32 33h3v2h-3zM48 33h3v2h-3zM56 33h3v2h-3zM52 33h3v2h-3zM60 33h3v2h-3zM32 30h3v2h-3zM48 30h3v2h-3zM56 30h3v2h-3zM52 30h3v2h-3zM60 30h3v2h-3zM32 27h3v2h-3zM48 27h3v2h-3zM56 27h3v2h-3zM52 27h3v2h-3zM60 27h3v2h-3zM32 24h3v2h-3zM48 24h3v2h-3zM56 24h3v2h-3zM52 24h3v2h-3zM60 24h3v2h-3zM32 21h3v2h-3zM48 21h3v2h-3zM56 21h3v2h-3zM76 33h3v2h-3zM76 30h3v2h-3zM76 27h3v2h-3zM76 24h3v2h-3zM80 33h3v2h-3zM80 30h3v2h-3zM80 27h3v2h-3zM80 24h3v2h-3zM92 33h3v2h-3zM92 30h3v2h-3zM92 27h3v2h-3zM96 33h3v2h-3zM96 30h3v2h-3zM100 33h3v2h-3zM100 30h3v2h-3zM108 33h3v2h-3zM108 30h3v2h-3zM112 33h3v2h-3zM112 30h3v2h-3zM104 33h3v2h-3zM96 27h3v2h-3zM116 33h3v2h-3zM116 30h3v2h-3zM116 27h3v2h-3zM128 33h3v2h-3zM128 30h3v2h-3zM132 33h3v2h-3zM132 30h3v2h-3zM148 33h3v2h-3zM128 27h3v2h-3zM140 33h3v2h-3zM140 30h3v2h-3zM140 27h3v2h-3zM156 33h3v2h-3zM156 30h3v2h-3zM156 27h3v2h-3zM144 33h3v2h-3zM144 30h3v2h-3zM152 33h3v2h-3zM152 30h3v2h-3zM92 24h3v2h-3zM120 33h3v2h-3zM120 30h3v2h-3zM120 27h3v2h-3zM120 24h3v2h-3zM124 33h3v2h-3zM124 30h3v2h-3zM124 27h3v2h-3zM124 24h3v2h-3zM136 33h3v2h-3zM136 30h3v2h-3zM136 27h3v2h-3zM136 24h3v2h-3zM160 33h3v2h-3zM160 30h3v2h-3zM160 27h3v2h-3zM160 24h3v2h-3zM124 21h3v2h-3zM164 33h3v2h-3zM164 30h3v2h-3zM164 27h3v2h-3zM164 24h3v2h-3zM164 21h3v2h-3zM164 18h3v2h-3zM164 15h3v2h-3zM168 33h3v2h-3zM168 30h3v2h-3zM168 27h3v2h-3zM172 33h3v2h-3zM172 30h3v2h-3zM172 27h3v2h-3zM176 33h3v2h-3zM176 30h3v2h-3zM180 33h3v2h-3zM180 30h3v2h-3zM188 33h3v2h-3zM188 30h3v2h-3zM196 33h3v2h-3zM196 30h3v2h-3zM184 33h3v2h-3zM176 27h3v2h-3zM192 33h3v2h-3zM192 30h3v2h-3zM192 27h3v2h-3zM200 33h3v2h-3zM200 30h3v2h-3zM200 27h3v2h-3zM200 24h3v2h-3zM208 33h3v2h-3zM208 30h3v2h-3zM208 27h3v2h-3zM212 33h3v2h-3zM212 30h3v2h-3zM212 27h3v2h-3zM224 33h3v2h-3zM224 30h3v2h-3zM224 27h3v2h-3zM232 33h3v2h-3zM232 30h3v2h-3zM232 27h3v2h-3zM228 33h3v2h-3zM228 30h3v2h-3zM236 33h3v2h-3zM236 30h3v2h-3zM208 24h3v2h-3zM208 21h3v2h-3zM220 33h3v2h-3zM220 30h3v2h-3zM220 27h3v2h-3zM220 24h3v2h-3zM220 21h3v2h-3zM204 33h3v2h-3zM204 30h3v2h-3zM204 27h3v2h-3zM204 24h3v2h-3zM204 21h3v2h-3zM204 18h3v2h-3zM216 15h3v2h-3zM216 33h3v2h-3zM216 30h3v2h-3zM216 27h3v2h-3zM216 24h3v2h-3zM216 21h3v2h-3zM216 18h3v2h-3zM168 24h3v2h-3zM168 21h3v2h-3zM76 21h3v2h-3zM88 33h3v2h-3zM88 30h3v2h-3zM88 27h3v2h-3zM88 24h3v2h-3zM88 21h3v2h-3zM52 21h3v2h-3zM60 21h3v2h-3zM52 18h3v2h-3zM60 15h3v2h-3zM60 18h3v2h-3zM64 33h3v2h-3zM64 30h3v2h-3zM64 27h3v2h-3zM64 24h3v2h-3zM64 21h3v2h-3zM64 15h3v2h-3zM64 18h3v2h-3zM64 12h3v2h-3zM64 6h3v2h-3zM64 9h3v2h-3zM72 33h3v2h-3zM72 30h3v2h-3zM72 27h3v2h-3zM72 24h3v2h-3zM72 21h3v2h-3zM72 15h3v2h-3zM72 18h3v2h-3zM72 12h3v2h-3zM84 33h3v2h-3zM84 30h3v2h-3zM84 27h3v2h-3zM84 24h3v2h-3zM84 21h3v2h-3zM84 15h3v2h-3zM84 18h3v2h-3zM84 12h3v2h-3zM68 33h3v2h-3zM68 30h3v2h-3zM68 27h3v2h-3zM68 24h3v2h-3zM68 21h3v2h-3zM68 15h3v2h-3zM68 18h3v2h-3zM68 12h3v2h-3zM68 6h3v2h-3zM68 3h3v2h-3zM68 9h3v2h-3zM12 18h3v2h-3zM12 15h3v2h-3zM4 33h3v2H4zM0 33h3v2H0zM8 33h3v2H8z"/></g><defs><clipPath id="a"><path fill="#fff" d="M0 0h239v35H0z"/></clipPath></defs></svg>
